<mxfile host="app.diagrams.net" modified="2023-10-07T04:04:00.802Z" agent="Mozilla/5.0 (Windows NT 10.0; Win64; x64) AppleWebKit/537.36 (KHTML, like Gecko) Chrome/117.0.0.0 Safari/537.36" etag="5QvMmO7EfzsuLOtSXIJy" version="22.0.4" type="github">
  <diagram id="C5RBs43oDa-KdzZeNtuy" name="Page-1">
    <mxGraphModel dx="1562" dy="830" grid="1" gridSize="10" guides="1" tooltips="1" connect="1" arrows="1" fold="1" page="1" pageScale="1" pageWidth="827" pageHeight="1169" math="0" shadow="0">
      <root>
        <mxCell id="WIyWlLk6GJQsqaUBKTNV-0" />
        <mxCell id="WIyWlLk6GJQsqaUBKTNV-1" parent="WIyWlLk6GJQsqaUBKTNV-0" />
        <mxCell id="NRAUaiZb2Z6uQUg8wJ3K-41" value="" style="edgeStyle=orthogonalEdgeStyle;rounded=0;orthogonalLoop=1;jettySize=auto;html=1;" edge="1" parent="WIyWlLk6GJQsqaUBKTNV-1" source="NRAUaiZb2Z6uQUg8wJ3K-18" target="NRAUaiZb2Z6uQUg8wJ3K-21">
          <mxGeometry relative="1" as="geometry" />
        </mxCell>
        <mxCell id="NRAUaiZb2Z6uQUg8wJ3K-18" value="开始" style="rounded=1;whiteSpace=wrap;html=1;fontSize=12;glass=0;strokeWidth=1;shadow=0;" vertex="1" parent="WIyWlLk6GJQsqaUBKTNV-1">
          <mxGeometry x="170" y="90" width="120" height="40" as="geometry" />
        </mxCell>
        <mxCell id="NRAUaiZb2Z6uQUg8wJ3K-36" value="" style="edgeStyle=orthogonalEdgeStyle;rounded=0;orthogonalLoop=1;jettySize=auto;html=1;" edge="1" parent="WIyWlLk6GJQsqaUBKTNV-1" source="NRAUaiZb2Z6uQUg8wJ3K-21" target="NRAUaiZb2Z6uQUg8wJ3K-30">
          <mxGeometry relative="1" as="geometry" />
        </mxCell>
        <mxCell id="NRAUaiZb2Z6uQUg8wJ3K-38" value="" style="edgeStyle=orthogonalEdgeStyle;rounded=0;orthogonalLoop=1;jettySize=auto;html=1;" edge="1" parent="WIyWlLk6GJQsqaUBKTNV-1" source="NRAUaiZb2Z6uQUg8wJ3K-21" target="NRAUaiZb2Z6uQUg8wJ3K-22">
          <mxGeometry relative="1" as="geometry" />
        </mxCell>
        <mxCell id="NRAUaiZb2Z6uQUg8wJ3K-21" value="是否已登录" style="rhombus;whiteSpace=wrap;html=1;shadow=0;fontFamily=Helvetica;fontSize=12;align=center;strokeWidth=1;spacing=6;spacingTop=-4;" vertex="1" parent="WIyWlLk6GJQsqaUBKTNV-1">
          <mxGeometry x="180" y="180" width="100" height="80" as="geometry" />
        </mxCell>
        <mxCell id="NRAUaiZb2Z6uQUg8wJ3K-40" value="" style="edgeStyle=orthogonalEdgeStyle;rounded=0;orthogonalLoop=1;jettySize=auto;html=1;entryX=1;entryY=0.5;entryDx=0;entryDy=0;" edge="1" parent="WIyWlLk6GJQsqaUBKTNV-1" source="NRAUaiZb2Z6uQUg8wJ3K-22" target="NRAUaiZb2Z6uQUg8wJ3K-30">
          <mxGeometry relative="1" as="geometry">
            <mxPoint x="390" y="310" as="targetPoint" />
            <Array as="points">
              <mxPoint x="400" y="325" />
            </Array>
          </mxGeometry>
        </mxCell>
        <mxCell id="NRAUaiZb2Z6uQUg8wJ3K-22" value="登录" style="rounded=1;whiteSpace=wrap;html=1;fontSize=12;glass=0;strokeWidth=1;shadow=0;" vertex="1" parent="WIyWlLk6GJQsqaUBKTNV-1">
          <mxGeometry x="330" y="200" width="120" height="40" as="geometry" />
        </mxCell>
        <mxCell id="NRAUaiZb2Z6uQUg8wJ3K-25" value="" style="edgeStyle=orthogonalEdgeStyle;rounded=0;orthogonalLoop=1;jettySize=auto;html=1;exitX=0.5;exitY=1;exitDx=0;exitDy=0;" edge="1" parent="WIyWlLk6GJQsqaUBKTNV-1" source="NRAUaiZb2Z6uQUg8wJ3K-31">
          <mxGeometry relative="1" as="geometry">
            <mxPoint x="230" y="380" as="sourcePoint" />
            <mxPoint x="230" y="490" as="targetPoint" />
          </mxGeometry>
        </mxCell>
        <mxCell id="NRAUaiZb2Z6uQUg8wJ3K-26" value="结束" style="rounded=1;whiteSpace=wrap;html=1;fontSize=12;glass=0;strokeWidth=1;shadow=0;" vertex="1" parent="WIyWlLk6GJQsqaUBKTNV-1">
          <mxGeometry x="170" y="790" width="120" height="40" as="geometry" />
        </mxCell>
        <mxCell id="NRAUaiZb2Z6uQUg8wJ3K-45" value="" style="edgeStyle=orthogonalEdgeStyle;rounded=0;orthogonalLoop=1;jettySize=auto;html=1;" edge="1" parent="WIyWlLk6GJQsqaUBKTNV-1" source="NRAUaiZb2Z6uQUg8wJ3K-27" target="NRAUaiZb2Z6uQUg8wJ3K-44">
          <mxGeometry relative="1" as="geometry" />
        </mxCell>
        <mxCell id="NRAUaiZb2Z6uQUg8wJ3K-27" value="分配应有的功能权限" style="rounded=1;whiteSpace=wrap;html=1;fontSize=12;glass=0;strokeWidth=1;shadow=0;" vertex="1" parent="WIyWlLk6GJQsqaUBKTNV-1">
          <mxGeometry x="170" y="590" width="120" height="50" as="geometry" />
        </mxCell>
        <mxCell id="NRAUaiZb2Z6uQUg8wJ3K-28" value="&lt;span style=&quot;color: rgb(0, 0, 0); font-family: Helvetica; font-size: 11px; font-style: normal; font-variant-ligatures: normal; font-variant-caps: normal; font-weight: 400; letter-spacing: normal; orphans: 2; text-align: center; text-indent: 0px; text-transform: none; widows: 2; word-spacing: 0px; -webkit-text-stroke-width: 0px; background-color: rgb(251, 251, 251); text-decoration-thickness: initial; text-decoration-style: initial; text-decoration-color: initial; float: none; display: inline !important;&quot;&gt;是&lt;/span&gt;" style="text;whiteSpace=wrap;html=1;" vertex="1" parent="WIyWlLk6GJQsqaUBKTNV-1">
          <mxGeometry x="240" y="380" width="50" height="40" as="geometry" />
        </mxCell>
        <mxCell id="NRAUaiZb2Z6uQUg8wJ3K-29" value="" style="edgeStyle=orthogonalEdgeStyle;rounded=0;orthogonalLoop=1;jettySize=auto;html=1;" edge="1" parent="WIyWlLk6GJQsqaUBKTNV-1" source="NRAUaiZb2Z6uQUg8wJ3K-30" target="NRAUaiZb2Z6uQUg8wJ3K-31">
          <mxGeometry relative="1" as="geometry" />
        </mxCell>
        <mxCell id="NRAUaiZb2Z6uQUg8wJ3K-30" value="展示所有学生/教师" style="rounded=1;whiteSpace=wrap;html=1;fontSize=12;glass=0;strokeWidth=1;shadow=0;" vertex="1" parent="WIyWlLk6GJQsqaUBKTNV-1">
          <mxGeometry x="170" y="300" width="120" height="50" as="geometry" />
        </mxCell>
        <mxCell id="NRAUaiZb2Z6uQUg8wJ3K-31" value="选择添加学生或教师" style="rounded=1;whiteSpace=wrap;html=1;fontSize=12;glass=0;strokeWidth=1;shadow=0;" vertex="1" parent="WIyWlLk6GJQsqaUBKTNV-1">
          <mxGeometry x="170" y="390" width="120" height="50" as="geometry" />
        </mxCell>
        <mxCell id="NRAUaiZb2Z6uQUg8wJ3K-32" value="" style="edgeStyle=orthogonalEdgeStyle;rounded=0;orthogonalLoop=1;jettySize=auto;html=1;" edge="1" parent="WIyWlLk6GJQsqaUBKTNV-1" source="NRAUaiZb2Z6uQUg8wJ3K-33" target="NRAUaiZb2Z6uQUg8wJ3K-27">
          <mxGeometry relative="1" as="geometry" />
        </mxCell>
        <mxCell id="NRAUaiZb2Z6uQUg8wJ3K-33" value="输入该用户相关信息" style="rounded=1;whiteSpace=wrap;html=1;fontSize=12;glass=0;strokeWidth=1;shadow=0;" vertex="1" parent="WIyWlLk6GJQsqaUBKTNV-1">
          <mxGeometry x="170" y="490" width="120" height="50" as="geometry" />
        </mxCell>
        <mxCell id="NRAUaiZb2Z6uQUg8wJ3K-37" value="是" style="text;html=1;align=center;verticalAlign=middle;resizable=0;points=[];autosize=1;strokeColor=none;fillColor=none;" vertex="1" parent="WIyWlLk6GJQsqaUBKTNV-1">
          <mxGeometry x="230" y="268" width="40" height="30" as="geometry" />
        </mxCell>
        <mxCell id="NRAUaiZb2Z6uQUg8wJ3K-42" value="否" style="text;html=1;align=center;verticalAlign=middle;resizable=0;points=[];autosize=1;strokeColor=none;fillColor=none;" vertex="1" parent="WIyWlLk6GJQsqaUBKTNV-1">
          <mxGeometry x="280" y="198" width="40" height="30" as="geometry" />
        </mxCell>
        <mxCell id="NRAUaiZb2Z6uQUg8wJ3K-43" value="是" style="text;html=1;align=center;verticalAlign=middle;resizable=0;points=[];autosize=1;strokeColor=none;fillColor=none;" vertex="1" parent="WIyWlLk6GJQsqaUBKTNV-1">
          <mxGeometry x="400" y="278" width="40" height="30" as="geometry" />
        </mxCell>
        <mxCell id="NRAUaiZb2Z6uQUg8wJ3K-46" value="" style="edgeStyle=orthogonalEdgeStyle;rounded=0;orthogonalLoop=1;jettySize=auto;html=1;" edge="1" parent="WIyWlLk6GJQsqaUBKTNV-1" source="NRAUaiZb2Z6uQUg8wJ3K-44" target="NRAUaiZb2Z6uQUg8wJ3K-26">
          <mxGeometry relative="1" as="geometry" />
        </mxCell>
        <mxCell id="NRAUaiZb2Z6uQUg8wJ3K-44" value="提交" style="rounded=1;whiteSpace=wrap;html=1;fontSize=12;glass=0;strokeWidth=1;shadow=0;" vertex="1" parent="WIyWlLk6GJQsqaUBKTNV-1">
          <mxGeometry x="170" y="690" width="120" height="50" as="geometry" />
        </mxCell>
      </root>
    </mxGraphModel>
  </diagram>
</mxfile>
